{"title":"Jimmy.Fallon.2015.05.22.Sting.and.Kevin.Connolly.720p.x265.mkv","uid":11955190,"size":658471540,"categoryP":"video","categoryS":"hd___tv_shows","magnet":"?xt=urn:btih:62318ed6d9edd9aaadd4dc3e02ef7ece36770779&amp;dn=Jimmy.Fallon.2015.05.22.Sting.and.Kevin.Connolly.720p.x265.mkv&amp;tr=udp%3A%2F%2Ftracker.openbittorrent.com%3A80&amp;tr=udp%3A%2F%2Fopen.demonii.com%3A1337&amp;tr=udp%3A%2F%2Ftracker.coppersurfer.tk%3A6969&amp;tr=udp%3A%2F%2Fexodus.desync.com%3A6969","seeders":0,"leechers":1,"uploader":"zx9000","files":1,"time":1432376348,"description":"This is x265 NOT x264\nWorks great with the newer versions of VLC and potplayer\nOr your own software media player with updated codecs\nYou also need to have at least a dual core cpu\n\n\n----------------------\n\n\nJimmy.Fallon.2015.05.22.Sting.and.Kevin.Connolly.720p.HDTV.x265.mkv\n\nWith Sting, Kevin Connolly, Kevin Delaney\n\n\n\nVideo\n\nFormat                                   : HEVC\nFormat/Info                              : High Efficiency Video Coding\nFormat profile                           : &lt;a class=&quot;__cf_email__&quot; href=&quot;/cdn-cgi/l/email-protection&quot; data-cfemail=&quot;efa28e8681afa3dcc1de&quot;&gt;[email&amp;#160;protected]&lt;/a&gt;&lt;script data-cfhash='f9e31' type=&quot;text/javascript&quot;&gt;\n/* &lt;![CDATA[ */!function(){try{var t=&quot;currentScript&quot;in document?document.currentScript:function(){for(var t=document.getElementsByTagName(&quot;script&quot;),e=t.length;e--;)if(t[e].getAttribute(&quot;data-cfhash&quot;))return t[e]}();if(t&amp;&amp;t.previousSibling){var e,r,n,i,c=t.previousSibling,a=c.getAttribute(&quot;data-cfemail&quot;);if(a){for(e=&quot;&quot;,r=parseInt(a.substr(0,2),16),n=2;a.length-n;n+=2)i=parseInt(a.substr(n,2),16)^r,e+=String.fromCharCode(i);e=document.createTextNode(e),c.parentNode.replaceChild(e,c)}t.parentNode.removeChild(t);}}catch(u){}}()/* ]]&gt; */&lt;/script&gt;\nCodec ID                                 : V_MPEGH/ISO/HEVC\nDuration                                 : 41mn 10s\nBit rate                                 : 1706 Kbps\nWidth                                    : 1 280 pixels\nHeight                                   : 720 pixels\nDisplay aspect ratio                     : 16:9\nFrame rate mode                          : Constant\nFrame rate                               : 29.970 fps\nColor space                              : YUV\nChroma subsampling                       : 4:2:0\nBit depth                                : 8 bits\nBits/(Pixel*Frame)                       : 0.062\nStream size                              : 502 MiB (80%)\nWriting library                          : x265 1.6+332\nEncoding settings                        : x265 preset = Slow CRF 21\n\nAudio\n\nFormat                                   : AC-3\nBit rate mode                            : Constant\nBit rate                                 : 384 Kbps\nChannel(s)                               : 6 channels\nChannel positions                        : Front: L C R, Side: L R, LFE\nSampling rate                            : 48.0 KHz\nBit depth                                : 16 bits\nCompression mode                         : Lossy\nStream size                              : 113 MiB (18%)\nLanguage                                 : English","torrent":{"xt":"urn:btih:62318ed6d9edd9aaadd4dc3e02ef7ece36770779","amp;dn":"Jimmy.Fallon.2015.05.22.Sting.and.Kevin.Connolly.720p.x265.mkv","amp;tr":["udp%3A%2F%2Ftracker.openbittorrent.com%3A80","udp%3A%2F%2Fopen.demonii.com%3A1337","udp%3A%2F%2Ftracker.coppersurfer.tk%3A6969","udp%3A%2F%2Fexodus.desync.com%3A6969"],"infoHash":"62318ed6d9edd9aaadd4dc3e02ef7ece36770779","infoHashBuffer":{"type":"Buffer","data":[98,49,142,214,217,237,217,170,173,212,220,62,2,239,126,206,54,119,7,121]},"announce":[],"urlList":[]}}